<svg xmlns="http://www.w3.org/2000/svg" width="595.279" height="595.28" viewBox="0 123.305 595.279 595.28"><circle fill="#0071BB" cx="297.64" cy="420.945" r="297.64"/><path fill="#FFF" d="M55.688 248.122l414.775 414.776c24.964-17.282 46.086-38.405 65.289-63.368L119.056 182.833c-24.963 17.282-46.086 40.325-63.368 65.289z"/><path fill="#EC1C24" d="M357.168 443.988v40.325l147.859 147.86c7.682-5.761 13.442-13.442 19.203-21.123L357.168 443.988zM65.288 234.68l168.983 168.983 1.92-38.405-151.7-151.701c-7.68 7.681-13.441 15.362-19.203 21.123z"/><path fill="#FFF" d="M474.304 182.833L59.528 597.609c17.283 24.963 38.405 46.086 63.369 65.288l416.695-416.696c-19.202-24.963-40.325-46.086-65.288-63.368z"/><path fill="#EC1C24" d="M111.375 653.297L236.191 528.48v-40.325L90.252 634.094c5.761 5.76 13.442 13.441 21.123 19.203zm376.37-460.863L353.327 326.853l3.841 34.564 149.78-149.78c-5.76-7.681-11.521-13.442-19.203-19.203z"/><path fill="#FFF" d="M0 420.945c0 26.884 3.84 51.847 9.601 76.811h576.078c5.761-24.964 9.601-49.927 9.601-76.811 0-23.043-1.92-46.086-7.681-69.129H7.681C1.92 374.859 0 397.902 0 420.945z"/><path fill="#FFF" d="M224.67 708.984c23.043 5.76 48.007 9.601 72.97 9.601s48.007-3.841 71.05-7.681V130.986c-23.043-3.84-46.087-7.681-71.05-7.681s-49.927 3.841-72.97 9.602v576.077z"/><path fill="#EC1C24" d="M247.713 714.744c17.282 1.921 32.645 3.841 49.927 3.841s32.645-1.92 48.007-3.841V127.146c-15.362-1.92-30.725-3.841-48.007-3.841s-34.564 1.92-49.927 3.841v587.598z"/><path fill="#EC1C24" d="M0 420.945c0 17.282 1.92 36.484 3.84 53.767h585.679c3.841-17.282 3.841-34.564 3.841-53.767 0-15.362-1.92-30.724-3.841-46.086H3.84C1.92 390.221 0 405.583 0 420.945z"/></svg>